<?xml version="1.0"?>
<svg version="1.1" xmlns="http://www.w3.org/2000/svg" width="400px" height="200px" style=""><path fill="#2d00e0" d="M1.10205078125,93.36962890625q0-1.2646484375,0.43359375-1.6982421875t1.21044921875-0.43359375q0.216796875,0,0.460693359375,0.0361328125t0.460693359375,0.1083984375q1.21044921875-0.23486328125,2.29443359375-0.23486328125q1.75244140625,0,3.1796875,0.6142578125q2.29443359375,0.9755859375,3.7939453125,2.890625t2.2041015625,4.49853515625t0.70458984375,5.29345703125q0,1.517578125-0.207763671875,3.16162109375t-0.803955078125,3.05322265625q-0.52392578125,1.2646484375-1.4453125,2.646728515625t-2.086669921875,2.61962890625t-2.51123046875,2.16796875t-2.718994140625,1.255615234375l0,0.14453125q0,0.361328125-0.189697265625,0.587158203125t-0.460693359375,0.34326171875t-0.623291015625,0.153564453125t-0.659423828125,0.0361328125q-0.1806640625,0-0.514892578125-0.0361328125t-0.650390625-0.135498046875t-0.532958984375-0.261962890625t-0.216796875-0.45166015625q0-3.2880859375-0.171630859375-6.585205078125t-0.388427734375-6.59423828125t-0.388427734375-6.585205078125t-0.171630859375-6.59423828125z M4.5166015625,92.4482421875q0.1806640625,1.734375,0.23486328125,3.459716796875t0.16259765625,3.459716796875q0.2890625,4.48046875,0.66845703125,8.915771484375t0.45166015625,8.915771484375q1.734375-1.13818359375,2.971923828125-2.6015625t2.032470703125-3.1796875t1.165283203125-3.604248046875t0.370361328125-3.893310546875q0-1.4453125-0.2529296875-3.1796875t-0.8671875-3.34228515625t-1.653076171875-2.90869140625t-2.592529296875-1.86083984375q-0.3251953125-0.1083984375-0.785888671875-0.1806640625t-1.472412109375-0.072265625q-0.1083984375,0-0.216796875,0.0361328125t-0.216796875,0.0361328125z M19.523823242188,118.2470703125q0.072265625-3.77587890625,0.316162109375-7.53369140625t0.424560546875-7.53369140625q0.0361328125-1.4453125,0.0361328125-2.628662109375t0.117431640625-2.050537109375t0.43359375-1.327880859375t1.056884765625-0.460693359375q0.63232421875,0,0.95751953125,0.1806640625t0.496826171875,0.460693359375t0.207763671875,0.63232421875t0.0361328125,0.713623046875q0,0.52392578125,0.0361328125,1.038818359375t0.0361328125,1.038818359375q0,3.81201171875-0.207763671875,7.60595703125t-0.207763671875,7.64208984375q0,0.56005859375,0.01806640625,1.129150390625t0.01806640625,1.165283203125q0,0.216796875-0.19873046875,0.361328125t-0.496826171875,0.243896484375t-0.63232421875,0.135498046875t-0.551025390625,0.0361328125q-0.2529296875,0-0.569091796875-0.0361328125t-0.6142578125-0.153564453125t-0.505859375-0.280029296875t-0.207763671875-0.37939453125z M20.535541992188,93.7490234375q0-0.1806640625,0.05419921875-0.406494140625t0.12646484375-0.406494140625q0.0361328125-0.216796875,0.1083984375-0.74072265625t0.261962890625-1.020751953125t0.52392578125-0.88525390625t0.948486328125-0.388427734375l0.34326171875,0q0.2890625,0.072265625,0.587158203125,0.1806640625t0.298095703125,0.52392578125q0,0.1806640625-0.01806640625,0.34326171875t-0.05419921875,0.361328125q-0.14453125,1.06591796875-0.280029296875,1.68017578125t-0.316162109375,0.930419921875t-0.460693359375,0.406494140625t-0.713623046875,0.12646484375q-0.14453125,0-0.388427734375-0.01806640625t-0.4697265625-0.09033203125t-0.388427734375-0.225830078125t-0.16259765625-0.370361328125z M27.521279296875,103.107421875q0-1.1923828125,0.099365234375-2.610595703125t0.352294921875-2.845458984375t0.7587890625-2.755126953125t1.30078125-2.36669921875t1.942138671875-1.653076171875t2.737060546875-0.6142578125q1.2646484375,0,2.33056640625,0.48779296875t1.86083984375,1.31884765625t1.237548828125,1.942138671875t0.442626953125,2.321533203125q0,0.3251953125-0.442626953125,0.406494140625t-0.623291015625,0.081298828125q-0.3251953125,0-0.623291015625-0.05419921875t-0.442626953125-0.43359375q-0.2529296875-0.70458984375-0.532958984375-1.4814453125t-0.6865234375-1.418212890625t-1.002685546875-1.056884765625q-0.5419921875-0.361328125-1.373046875-0.361328125l-0.14453125,0q-1.517578125,0.0361328125-2.25830078125,1.083984375t-1.020751953125,2.54736328125t-0.280029296875,3.1796875l0,2.98095703125q0,0.74072265625,0.05419921875,2.14990234375t0.261962890625,3.0712890625t0.5419921875,3.387451171875t0.9033203125,3.1435546875t1.364013671875,2.3125t1.9150390625,0.894287109375q0.99365234375,0,1.734375-0.6865234375t1.273681640625-1.761474609375t0.9033203125-2.40283203125t0.6142578125-2.664794921875t0.370361328125-2.484130859375t0.19873046875-1.887939453125q-0.19873046875-0.01806640625-0.37939453125-0.01806640625q-0.84912109375,0-1.662109375,0.27099609375q-1.02978515625,0.30712890625-2.0595703125,0.30712890625q-0.14453125,0-0.388427734375-0.01806640625t-0.460693359375-0.09033203125t-0.388427734375-0.207763671875t-0.171630859375-0.352294921875q0-0.41552734375,0.912353515625-0.70458984375t2.07763671875-0.496826171875t2.249267578125-0.298095703125t1.42724609375-0.09033203125q0.1806640625,0,0.514892578125,0.0361328125t0.66845703125,0.12646484375t0.569091796875,0.261962890625t0.23486328125,0.424560546875q0,0.216796875-0.16259765625,0.388427734375t-0.406494140625,0.261962890625t-0.496826171875,0.12646484375t-0.3974609375,0.0361328125q0.01806640625,0.41552734375,0.01806640625,0.84912109375q0,0.9755859375-0.05419921875,2.07763671875q-0.09033203125,1.58984375-0.361328125,3.1796875t-0.8310546875,3.08935546875t-1.42724609375,2.646728515625t-2.140869140625,1.851806640625t-3.026123046875,0.70458984375q-1.9150390625,0-3.23388671875-0.81298828125t-2.14990234375-2.16796875t-1.291748046875-3.0712890625t-0.659423828125-3.513916015625t-0.243896484375-3.495849609375t-0.045166015625-3.0712890625z M48.147153320312,102.07763671875l0-1.39111328125l0-1.42724609375q0.01806640625-1.4453125,0.117431640625-2.773193359375t0.280029296875-2.213134765625q0.1083984375-0.48779296875,0.650390625-0.59619140625t0.939453125-0.1083984375q0.74072265625,0,1.093017578125,0.1806640625t0.460693359375,0.514892578125t0.09033203125,0.794921875t-0.01806640625,1.056884765625q0,0.84912109375-0.0361328125,2.36669921875t-0.05419921875,3.3603515625l0,0.92138671875q0,1.39111328125,0.0361328125,2.87255859375q0.05419921875,1.9873046875,0.207763671875,3.802978515625t0.424560546875,3.27001953125t0.7587890625,2.231201171875q0.77685546875-0.70458984375,1.5537109375-1.978271484375t1.4814453125-2.863525390625t1.345947265625-3.351318359375t1.165283203125-3.441650390625t0.894287109375-3.16162109375t0.551025390625-2.51123046875q0.2890625-1.4814453125,0.388427734375-3.01708984375t0.099365234375-3.41455078125q0.56005859375-0.66845703125,0.8671875-0.840087890625t0.9755859375-0.171630859375q0.3251953125,0,0.659423828125,0.05419921875t0.641357421875,0.2529296875l0.2529296875,0.3974609375l0,0.45166015625q0,3.2880859375-0.316162109375,6.675537109375t-0.66845703125,6.81103515625t-0.66845703125,6.865234375t-0.316162109375,6.838134765625q0,0.52392578125,0.045166015625,1.111083984375t0.189697265625,1.111083984375l-0.072265625,0.216796875q-0.2529296875,0.41552734375-0.8310546875,0.52392578125t-0.99365234375,0.1083984375q-0.88525390625,0-1.327880859375-0.261962890625t-0.587158203125-0.72265625t-0.12646484375-1.06591796875t0.01806640625-1.309814453125q0-2.43896484375,0.216796875-4.959228515625t0.52392578125-4.959228515625q-0.2890625,0.84912109375-0.6865234375,2.050537109375t-0.930419921875,2.40283203125t-1.237548828125,2.2041015625t-1.5537109375,1.436279296875l0.0361328125-0.0361328125l-0.14453125,0.072265625l0.0361328125,0q-0.52392578125,0.2890625-0.966552734375,0.388427734375t-1.038818359375,0.099365234375q-1.1923828125,0-1.978271484375-0.70458984375t-1.273681640625-1.815673828125t-0.72265625-2.4931640625t-0.334228515625-2.773193359375t-0.099365234375-2.646728515625l0-2.068603515625q0-0.99365234375-0.01806640625-2.36669921875z M54.578793945312,116.45849609375q0.0361328125,0,0.0361328125-0.0361328125l0.0361328125,0q-0.0361328125,0.0361328125-0.072265625,0.0361328125z M67.6709765625,118.2470703125q0.072265625-3.77587890625,0.316162109375-7.53369140625t0.424560546875-7.53369140625q0.0361328125-1.4453125,0.0361328125-2.628662109375t0.117431640625-2.050537109375t0.43359375-1.327880859375t1.056884765625-0.460693359375q0.63232421875,0,0.95751953125,0.1806640625t0.496826171875,0.460693359375t0.207763671875,0.63232421875t0.0361328125,0.713623046875q0,0.52392578125,0.0361328125,1.038818359375t0.0361328125,1.038818359375q0,3.81201171875-0.207763671875,7.60595703125t-0.207763671875,7.64208984375q0,0.56005859375,0.01806640625,1.129150390625t0.01806640625,1.165283203125q0,0.216796875-0.19873046875,0.361328125t-0.496826171875,0.243896484375t-0.63232421875,0.135498046875t-0.551025390625,0.0361328125q-0.2529296875,0-0.569091796875-0.0361328125t-0.6142578125-0.153564453125t-0.505859375-0.280029296875t-0.207763671875-0.37939453125z M68.6826953125,93.7490234375q0-0.1806640625,0.05419921875-0.406494140625t0.12646484375-0.406494140625q0.0361328125-0.216796875,0.1083984375-0.74072265625t0.261962890625-1.020751953125t0.52392578125-0.88525390625t0.948486328125-0.388427734375l0.34326171875,0q0.2890625,0.072265625,0.587158203125,0.1806640625t0.298095703125,0.52392578125q0,0.1806640625-0.01806640625,0.34326171875t-0.05419921875,0.361328125q-0.14453125,1.06591796875-0.280029296875,1.68017578125t-0.316162109375,0.930419921875t-0.460693359375,0.406494140625t-0.713623046875,0.12646484375q-0.14453125,0-0.388427734375-0.01806640625t-0.4697265625-0.09033203125t-0.388427734375-0.225830078125t-0.16259765625-0.370361328125z M75.632299804688,94.85107421875q0-0.216796875,0.207763671875-0.3251953125t0.45166015625-0.16259765625t0.442626953125-0.05419921875l0.19873046875,0q0.63232421875,0,0.912353515625,0.2890625t0.677490234375,0.74072265625q2.7099609375,3.92041015625,4.96826171875,8.066650390625t4.35400390625,8.391845703125q0.1806640625-4.9501953125,0.370361328125-9.963623046875t0.478759765625-9.945556640625q0-0.216796875,0.207763671875-0.361328125t0.4697265625-0.216796875t0.532958984375-0.09033203125t0.41552734375-0.01806640625q0.216796875,0,0.478759765625,0.01806640625t0.52392578125,0.1083984375t0.43359375,0.216796875t0.171630859375,0.34326171875q0.072265625,0.77685546875,0.081298828125,1.562744140625t0.009033203125,1.562744140625q0,5.8173828125-0.2529296875,11.39990234375t-0.2529296875,11.2734375l0,1.30078125q0,0.072265625-0.072265625,0.216796875q0.0361328125,0.14453125,0.1083984375,0.316162109375t0.072265625,0.243896484375q0,0.2890625-0.298095703125,0.43359375t-0.650390625,0.225830078125t-0.623291015625,0.081298828125t-0.19873046875,0q-0.92138671875,0-1.5537109375-0.505859375t-0.63232421875-1.21044921875q-1.3369140625-2.9990234375-2.664794921875-5.952880859375t-2.773193359375-5.880615234375q-0.92138671875-1.8427734375-1.851806640625-3.694580078125t-1.996337890625-3.586181640625q0.0361328125,0.0361328125,0.0361328125,0.1083984375q0.1806640625,1.806640625,0.388427734375,3.604248046875t0.316162109375,3.604248046875q0.072265625,1.5537109375,0.16259765625,3.1435546875t0.2890625,3.1435546875q0,0.59619140625-0.370361328125,0.7587890625t-0.858154296875,0.16259765625q-0.41552734375,0-0.785888671875-0.1083984375t-0.442626953125-0.5419921875q0-1.662109375-0.12646484375-3.531982421875t-0.23486328125-3.766845703125q-0.1806640625-2.51123046875-0.478759765625-5.103759765625t-0.298095703125-5.067626953125q0-0.1083984375,0.01806640625-0.225830078125t0.01806640625-0.261962890625q-0.1083984375-0.1806640625-0.243896484375-0.37939453125t-0.135498046875-0.361328125z M95.589716796875,118.08447265625q0-0.1083984375,0.072265625-0.767822265625t0.189697265625-1.60791015625t0.261962890625-2.04150390625t0.2529296875-2.068603515625t0.189697265625-1.71630859375t0.081298828125-0.99365234375q-0.14453125-0.072265625-0.352294921875-0.207763671875t-0.207763671875-0.316162109375q0-0.2529296875,0.243896484375-0.406494140625t0.424560546875-0.225830078125q0.072265625-0.92138671875,0.1806640625-2.5654296875t0.334228515625-3.550048828125t0.63232421875-3.8662109375t1.074951171875-3.55908203125t1.60791015625-2.610595703125t2.3125-1.01171875t2.2763671875,0.8671875t1.472412109375,2.25830078125t0.8671875,3.08935546875t0.45166015625,3.37841796875t0.189697265625,3.1435546875t0.072265625,2.3486328125q0.0361328125,0.56005859375,0.27099609375,0.749755859375t0.514892578125,0.261962890625t0.505859375,0.16259765625t0.225830078125,0.45166015625q0,0.41552734375-0.505859375,0.578125t-0.794921875,0.19873046875q0.1806640625,2.25830078125,0.496826171875,4.4443359375t0.840087890625,4.408203125q0.072265625,0.41552734375,0.19873046875,0.840087890625t0.12646484375,0.822021484375q0,0.2890625-0.19873046875,0.478759765625t-0.514892578125,0.298095703125t-0.63232421875,0.14453125t-0.532958984375,0.0361328125q-0.81298828125,0-1.373046875-0.30712890625t-0.74072265625-1.17431640625q-0.48779296875-2.33056640625-0.95751953125-4.89599609375q-0.3974609375-2.22216796875-0.3974609375-4.31787109375q0-0.3251953125,0.01806640625-0.650390625q-1.517578125,0-3.05322265625,0.072265625t-2.94482421875,0.5419921875q-0.0361328125,0.48779296875-0.1806640625,1.8427734375t-0.3251953125,2.90869140625t-0.370361328125,2.971923828125t-0.225830078125,2.014404296875q-0.0361328125,0.2529296875-0.370361328125,0.478759765625t-0.72265625,0.243896484375t-0.6865234375-0.243896484375t-0.298095703125-0.930419921875z M98.968134765625,107.13623046875q1.4091796875-0.3251953125,2.827392578125-0.37939453125t2.863525390625-0.12646484375q-0.072265625-0.45166015625-0.0361328125-0.930419921875t0.0361328125-0.966552734375q0-1.06591796875-0.05419921875-2.47509765625t-0.16259765625-2.8544921875t-0.280029296875-2.845458984375t-0.388427734375-2.4931640625t-0.460693359375-1.743408203125t-0.532958984375-0.650390625q-0.56005859375,0.0361328125-1.056884765625,0.966552734375t-0.9033203125,2.36669921875t-0.74072265625,3.2158203125t-0.56005859375,3.477783203125t-0.370361328125,3.16162109375t-0.1806640625,2.2763671875z M114.53541503906,109.611328125q0-0.361328125,0.984619140625-0.5419921875t2.3125-0.261962890625t2.755126953125-0.063232421875t2.3125,0.01806640625q0.45166015625,0,1.056884765625,0.171630859375t0.605224609375,0.569091796875q0,0.3251953125-0.2890625,0.478759765625t-0.677490234375,0.225830078125t-0.7587890625,0.072265625l-0.478759765625,0q-1.2646484375,0-2.375732421875-0.05419921875t-2.303466796875-0.05419921875q-0.361328125,0-0.731689453125,0.0361328125t-0.695556640625,0.0361328125l-0.514892578125,0t-0.56005859375-0.05419921875t-0.45166015625-0.1806640625t-0.189697265625-0.3974609375z M129.03677734375,115.46484375q0.1083984375-2.9267578125,0.189697265625-5.998046875t0.153564453125-6.061279296875t0.1083984375-5.808349609375t0.0361328125-5.25732421875q0.0361328125-0.48779296875,0.84912109375-0.77685546875t1.942138671875-0.424560546875t2.384765625-0.171630859375t2.231201171875-0.0361328125q0.216796875,0,0.9033203125-0.01806640625l0.34326171875,0q0.52392578125,0,1.10205078125,0.0361328125q0.7587890625,0.05419921875,1.327880859375,0.23486328125t0.569091796875,0.52392578125q0,0.2529296875-0.19873046875,0.406494140625t-0.460693359375,0.225830078125t-0.5419921875,0.09033203125t-0.388427734375,0.01806640625q-1.6982421875,0-3.3603515625-0.05419921875q-0.45166015625-0.01806640625-0.92138671875-0.01806640625q-1.228515625,0-2.4931640625,0.1083984375q0.072265625,0.216796875,0.117431640625,1.309814453125t0.045166015625,2.466064453125t-0.01806640625,2.682861328125t0,2.014404296875l0,4.697265625q0.56005859375-0.0361328125,1.10205078125-0.0361328125l1.083984375,0l0.72265625-0.0361328125q0.361328125-0.01806640625,0.7587890625-0.01806640625q0.41552734375,0,0.84912109375,0.01806640625q0.8671875,0.0361328125,1.580810546875,0.207763671875t0.713623046875,0.605224609375q0,0.3251953125-0.27099609375,0.478759765625t-0.605224609375,0.225830078125t-0.63232421875,0.072265625l-0.334228515625,0q-1.02978515625,0-2.140869140625-0.072265625t-2.068603515625-0.072265625q-0.1806640625,0.072265625-0.388427734375,0.05419921875t-0.370361328125-0.01806640625q0,2.7099609375-0.05419921875,5.392822265625t-0.12646484375,5.338623046875q0,0.52392578125-0.659423828125,0.6865234375t-1.255615234375,0.16259765625q-0.66845703125,0-1.056884765625-0.16259765625t-0.551025390625-0.532958984375t-0.19873046875-0.984619140625q-0.01806640625-0.34326171875-0.0361328125-0.7587890625q0-0.34326171875,0.01806640625-0.74072265625z M143.77300292969,118.2470703125q0.072265625-3.77587890625,0.316162109375-7.53369140625t0.424560546875-7.53369140625q0.0361328125-1.4453125,0.0361328125-2.628662109375t0.117431640625-2.050537109375t0.43359375-1.327880859375t1.056884765625-0.460693359375q0.63232421875,0,0.95751953125,0.1806640625t0.496826171875,0.460693359375t0.207763671875,0.63232421875t0.0361328125,0.713623046875q0,0.52392578125,0.0361328125,1.038818359375t0.0361328125,1.038818359375q0,3.81201171875-0.207763671875,7.60595703125t-0.207763671875,7.64208984375q0,0.56005859375,0.01806640625,1.129150390625t0.01806640625,1.165283203125q0,0.216796875-0.19873046875,0.361328125t-0.496826171875,0.243896484375t-0.63232421875,0.135498046875t-0.551025390625,0.0361328125q-0.2529296875,0-0.569091796875-0.0361328125t-0.6142578125-0.153564453125t-0.505859375-0.280029296875t-0.207763671875-0.37939453125z M144.78472167969,93.7490234375q0-0.1806640625,0.05419921875-0.406494140625t0.12646484375-0.406494140625q0.0361328125-0.216796875,0.1083984375-0.74072265625t0.261962890625-1.020751953125t0.52392578125-0.88525390625t0.948486328125-0.388427734375l0.34326171875,0q0.2890625,0.072265625,0.587158203125,0.1806640625t0.298095703125,0.52392578125q0,0.1806640625-0.01806640625,0.34326171875t-0.05419921875,0.361328125q-0.14453125,1.06591796875-0.280029296875,1.68017578125t-0.316162109375,0.930419921875t-0.460693359375,0.406494140625t-0.713623046875,0.12646484375q-0.14453125,0-0.388427734375-0.01806640625t-0.4697265625-0.09033203125t-0.388427734375-0.225830078125t-0.16259765625-0.370361328125z M151.77045898438,109.2138671875l0-2.8544921875q0-2.962890625,0.099365234375-5.880615234375t0.171630859375-5.880615234375q0-0.56005859375-0.0361328125-1.24658203125q-0.01806640625-0.19873046875-0.01806640625-0.37939453125q0-0.45166015625,0.072265625-0.88525390625q0.09033203125-0.578125,0.442626953125-0.99365234375t1.165283203125-0.41552734375q0.66845703125,0,1.020751953125,0.14453125t0.496826171875,0.424560546875t0.16259765625,0.70458984375t0.01806640625,0.984619140625q0,2.9990234375-0.072265625,6.01611328125q-0.05419921875,2.00537109375-0.05419921875,4.0107421875q0,1.01171875,0.01806640625,2.0234375q0.0361328125,2.9990234375,0.280029296875,5.998046875t0.822021484375,5.92578125q1.806640625-0.072265625,3.61328125-0.1806640625t3.61328125-0.1083984375q0.1806640625,0,0.514892578125,0.0361328125t0.66845703125,0.12646484375t0.569091796875,0.23486328125t0.23486328125,0.41552734375q0,0.1806640625-0.16259765625,0.30712890625t-0.30712890625,0.19873046875l-0.0361328125,0q-0.2890625,0.14453125-1.147216796875,0.280029296875t-1.951171875,0.207763671875t-2.29443359375,0.12646484375t-2.25830078125,0.09033203125t-1.833740234375,0.05419921875t-0.95751953125,0.01806640625l-0.16259765625,0q-0.43359375,0-0.9755859375-0.14453125q-0.650390625-0.1806640625-0.81298828125-0.70458984375q-0.3251953125-1.3369140625-0.514892578125-2.773193359375t-0.2890625-2.917724609375t-0.099365234375-2.962890625z M168.16879394531,115.0673828125q0-0.63232421875,0.43359375-0.803955078125t0.939453125-0.171630859375q0.88525390625,0,1.49951171875,0.794921875t1.165283203125,1.743408203125t1.093017578125,1.743408203125t1.28271484375,0.794921875q0.56005859375,0,1.020751953125-0.280029296875t0.794921875-0.70458984375t0.514892578125-0.95751953125t0.1806640625-1.056884765625q0-1.373046875-0.551025390625-2.83642578125t-1.4091796875-3.01708984375t-1.815673828125-3.1796875t-1.806640625-3.30615234375t-1.4091796875-3.423583984375t-0.56005859375-3.513916015625q0-2.65576171875,1.58984375-4.119140625t4.19140625-1.46337890625q0.88525390625,0,1.78857421875,0.2529296875t1.662109375,0.7587890625t1.237548828125,1.24658203125t0.478759765625,1.734375q0,0.3251953125-0.478759765625,0.424560546875t-0.695556640625,0.099365234375q-0.3251953125,0-0.70458984375-0.081298828125t-0.48779296875-0.442626953125t-0.30712890625-0.8310546875t-0.496826171875-0.876220703125t-0.70458984375-0.70458984375t-0.894287109375-0.298095703125q-0.81298828125,0-1.382080078125,0.334228515625t-0.92138671875,0.894287109375t-0.52392578125,1.255615234375t-0.171630859375,1.436279296875q0,1.734375,0.59619140625,3.495849609375t1.4814453125,3.5048828125t1.924072265625,3.441650390625t1.924072265625,3.30615234375t1.4814453125,3.1435546875t0.59619140625,2.90869140625q0,1.228515625-0.578125,2.07763671875t-1.46337890625,1.382080078125t-1.960205078125,0.77685546875t-2.104736328125,0.243896484375q-1.10205078125,0-2.25830078125-0.442626953125t-2.07763671875-1.219482421875t-1.517578125-1.815673828125t-0.59619140625-2.249267578125z"/><path fill="#" d=""/></svg>
